<svg width="123" height="41" fill="none" xmlns="http://www.w3.org/2000/svg"><path d="M12.671 17.566c0 .414.047.826.142 1.23H2.838a20.948 20.948 0 0 1-.13-2.46h10.111a5.323 5.323 0 0 0-.148 1.23zM33.383 16.336a20.15 20.15 0 0 1-.14 2.46H23.27c.187-.81.187-1.651 0-2.46h10.113z" fill="#FF6E00"/><path d="M15.096 13.074a5.389 5.389 0 0 0-1.818 2.001l-1.402-1.354a6.738 6.738 0 0 0-4.702-1.9H2.708V9.12h4.474a9.42 9.42 0 0 1 6.578 2.66l1.336 1.295zM32.075 23.76a23.44 23.44 0 0 1-1.163 2.699h-2.02a9.419 9.419 0 0 1-6.577-2.658l-1.62-1.558a5.408 5.408 0 0 0 1.938-1.883l1.558 1.506a6.744 6.744 0 0 0 4.703 1.9l3.181-.007z" fill="#00C8FF"/><path d="M36.078 16.037V1.667l-3.395-.53a94.81 94.81 0 0 0-29.284 0l-3.396.53v14.37c-.13 7.853 3.82 15.425 9.136 19.545 0 0 4.192 3.538 8.902 4.947 5.28-1.709 8.901-4.947 8.901-4.947 5.318-4.12 9.266-11.692 9.136-19.545zm-33.37.046V3.924l.83-.13a94.82 94.82 0 0 1 29.011 0l.832.13v5.194h-4.504a9.425 9.425 0 0 0-6.58 2.66l-1.33 1.284a5.37 5.37 0 0 0-7.531 7.272l-1.571 1.526c-1.269 1.224-2.939 1.9-4.107 1.9H4.006c-.89-2.461-1.33-5.061-1.298-7.677zm18.516 1.483a3.182 3.182 0 1 1-3.183-3.183 3.182 3.182 0 0 1 3.179 3.183h.004zm9.9 8.47c-1.437 2.978-3.505 5.61-5.83 7.411 0 0-3.125 2.702-7.272 4.232-3.777-1.361-7.226-4.232-7.226-4.232-2.207-1.714-4.195-4.184-5.621-6.988h1.987a9.422 9.422 0 0 0 6.583-2.658l1.627-1.578a5.37 5.37 0 0 0 7.418-7.166l1.384-1.337a6.736 6.736 0 0 1 4.703-1.9h4.502v4.261c.056 3.338-.726 6.78-2.258 9.954h.004z" fill="#fff"/><path d="M18.038 14.383a3.183 3.183 0 1 0 0 6.365 3.183 3.183 0 0 0 0-6.365z" fill="#FF6E00"/><path d="m55.792 28.166-4.24-7.111h-2.337v7.116h-3.496V9.18h7.067c2.055 0 3.622.565 4.727 1.722 1.105 1.156 1.644 2.543 1.644 4.213 0 2.467-1.336 4.675-3.982 5.524l4.78 7.53-4.163-.002zm-6.578-15.724v5.447H52.4c2.133 0 3.16-1.208 3.16-2.749 0-1.517-1.027-2.698-2.774-2.698h-3.572zM72.343 24.664a7.885 7.885 0 0 1-3.777.935c-2.39 0-3.828-1.284-4.264-3.21h10.637c.065-.495.099-.993.102-1.491 0-2.159-.649-3.854-1.947-5.113-1.285-1.26-2.93-1.902-4.96-1.902-2.131 0-3.879.693-5.241 2.078-1.342 1.363-2.014 3.11-2.014 5.223 0 3.7 2.313 7.298 7.554 7.298 1.962 0 3.72-.465 5.26-1.39l-1.35-2.428zm-4.214-7.983c1.927 0 3.341 1.208 3.623 3.16h-7.45c.436-1.952 1.875-3.16 3.827-3.16zM88.982 28.166h-3.854L82.27 23.44l-2.93 4.727h-3.874l4.675-7.141-4.188-6.81h3.854l2.544 4.415 2.698-4.414h3.802l-4.415 6.911 4.545 7.04zM102.723 10.438c0-1.207.952-2.107 2.159-2.107a2.053 2.053 0 0 1 2.107 2.107c0 1.233-.899 2.106-2.107 2.106-1.233 0-2.159-.873-2.159-2.106zM95.76 14.214V9.28h-3.313v4.934h-2.364v2.827h2.312v6.013c0 3.571 1.62 5.454 4.779 5.454 1.568 0 2.929-.39 4.034-1.157l-1.053-2.62a4.507 4.507 0 0 1-2.365.719c-1.36 0-2.03-.848-2.03-2.518v-5.89h7.402v11.124h3.366V14.214H95.761zM120.302 24.664a7.882 7.882 0 0 1-3.776.933c-2.391 0-3.829-1.285-4.265-3.212h10.637c.064-.494.099-.992.102-1.49 0-2.158-.649-3.854-1.948-5.112-1.284-1.26-2.929-1.902-4.958-1.902-2.133 0-3.88.692-5.242 2.077-1.336 1.362-2.004 3.109-2.004 5.216 0 3.7 2.313 7.297 7.555 7.297 1.962 0 3.718-.464 5.258-1.389l-1.359-2.418zm-4.214-7.983c1.927 0 3.341 1.208 3.623 3.16h-7.45c.436-1.952 1.874-3.16 3.827-3.16z" fill="#fff"/></svg>